<svg width="87" height="87" viewBox="0 0 87 87" fill="none" xmlns="http://www.w3.org/2000/svg">
<path d="M24.1237 2.4533C16.8711 2.45636 10.0579 4.36152 6.91368 7.75265C1.70524 13.3699 7.12405 22.5002 3.05306 36.3102C1.58952 41.2753 15.6575 52.9514 23.8155 62.0746C23.3207 60.7296 23.2521 59.2649 23.619 57.8796V57.7627L23.6989 57.5185C26.6817 48.4437 25.8549 43.6373 23.4865 36.2251C22.6039 33.4639 22.7688 30.8335 23.789 28.6106C24.8092 26.3876 26.6097 24.6041 28.8229 23.2048C33.2494 20.4062 39.3912 19.0226 45.5284 18.8453C46.2929 18.8227 47.0578 18.8192 47.8224 18.8348C51.8036 18.9184 55.6915 19.5269 59.0212 20.7413C58.0371 19.715 56.9239 18.6813 55.7343 17.6453C48.623 13.5412 29.3102 14.5201 20.3854 20.3853C26.0039 12.8704 39.8874 9.13752 51.7411 14.3689C50.3381 13.2707 48.897 12.1834 47.4718 11.119C40.4858 6.91341 20.9623 7.86225 11.9743 13.7687C17.4449 6.4519 30.7558 2.71583 42.3954 7.35419C37.5096 3.98769 30.6407 2.45041 24.1237 2.4533ZM46.6859 21.9994C46.33 22.0004 45.9752 22.0052 45.6188 22.0156C39.9146 22.1804 34.2035 23.5644 30.5221 25.8918C28.6815 27.0554 27.3662 28.4209 26.6724 29.9326C25.9782 31.4445 25.8324 33.1295 26.5126 35.2588C28.9238 42.8033 29.835 48.81 26.7942 58.2356V58.2725L26.7147 58.5115C26.4943 59.181 26.5103 60.5333 27.0222 61.4801C27.5347 62.4265 28.3306 63.1577 30.3782 63.1577C31.6186 63.1577 33.2647 63.1543 34.7911 63.1526C38.5015 60.3443 42.8369 57.1743 46.0696 54.6616C47.7892 53.3254 49.9394 53.027 51.8682 53.0793C53.7968 53.132 55.5059 53.5269 56.7217 54.1095C60.0729 55.7143 63.0219 56.7663 66.0674 57.5292C66.0431 57.3644 66.0096 57.2222 65.9717 57.1095C63.2153 48.9577 61.8749 41.752 64.5434 33.7082C65.2367 31.6185 65.0922 30.0304 64.4265 28.6371C63.7607 27.2441 62.4866 25.9982 60.6669 24.9679C57.4826 23.1656 52.7163 22.1303 47.7529 22.0103C47.3972 22.002 47.0415 21.9986 46.6858 22.0001L46.6859 21.9994ZM51.5022 56.2494C51.4087 56.2494 51.318 56.2519 51.2261 56.255C49.9394 56.2968 48.7379 56.6093 48.0186 57.1683C43.8776 60.3866 38.0617 64.5956 34.0375 67.7352C33.2439 68.3541 32.9867 68.8438 32.9221 69.0997C32.8575 69.3563 32.8803 69.4676 33.0602 69.7213C33.4198 70.2285 34.7238 70.9045 36.0179 70.8948C45.3167 70.826 52.5666 73.0521 58.6863 75.9975C62.0049 77.5948 66.0691 77.6495 70.0235 76.6879C73.9776 75.7262 77.7784 73.7466 80.3938 71.5583C83.0093 69.3701 84.1882 67.0367 83.9729 65.7915C83.8652 65.1689 83.5342 64.6038 82.4861 63.9808C81.4377 63.3582 79.6715 62.7888 77.1016 62.5101C68.7088 61.6006 62.8362 60.5557 55.3516 56.9717C54.7861 56.7009 53.2711 56.2954 51.7833 56.2552C51.6895 56.2522 51.5957 56.2504 51.5019 56.2497L51.5022 56.2494ZM84.8494 71.6273C84.1507 72.4497 83.3296 73.2405 82.4331 73.9906C79.3923 76.5348 75.2394 78.6881 70.7776 79.773C66.3162 80.8583 61.5033 80.8772 57.3113 78.8599C51.5061 76.0657 44.8306 74.0052 36.0448 74.0701C34.6922 74.0803 33.3637 73.7829 32.2533 73.1515C32.5778 75.9144 34.2386 78.2772 37.2395 78.2543C45.9432 78.188 51.058 80.3256 57.2585 82.5929C67.0086 86.1578 84.8494 80.623 84.8494 74.2455V71.6271V71.6273Z" fill="black"/>
</svg>
 