<svg width="30" height="30" viewBox="0 0 30 30" fill="none" xmlns="http://www.w3.org/2000/svg">
<path d="M25.1875 26.5C25.3958 26.5 25.6146 26.495 25.8437 26.485C26.0729 26.4742 26.2917 26.4583 26.5 26.4375V19.125L20.25 17.875L16.625 21.5C15.0417 20.5417 13.5883 19.4062 12.265 18.0938C10.9425 16.7812 9.84375 15.375 8.96875 13.875L12.5312 10.2812L11.375 4H4.0625C4.02083 4.20833 4 4.42708 4 4.65625V5.3125C4 8 4.59917 10.6196 5.7975 13.1712C6.995 15.7238 8.57833 17.9896 10.5475 19.9688C12.5158 21.9479 14.7758 23.5313 17.3275 24.7188C19.88 25.9062 22.5 26.5 25.1875 26.5Z" fill="black"/>
</svg>
