<svg width="77" height="77" viewBox="0 0 77 77" fill="none" xmlns="http://www.w3.org/2000/svg">
<path d="M72.8437 16.3906H66.3866L73.017 9.76027C73.3963 9.38093 73.6972 8.93058 73.9025 8.43494C74.1078 7.9393 74.2135 7.40808 74.2135 6.8716C74.2135 6.33513 74.1078 5.8039 73.9025 5.30826C73.6972 4.81262 73.3963 4.36228 73.017 3.98293C72.6376 3.60358 72.1873 3.30267 71.6916 3.09737C71.196 2.89207 70.6648 2.7864 70.1283 2.7864C69.5918 2.7864 69.0606 2.89207 68.565 3.09737C68.0693 3.30267 67.619 3.60358 67.2396 3.98293L60.6093 10.6133V4.15625C60.6093 3.07466 60.1796 2.03738 59.4148 1.27258C58.65 0.507783 57.6127 0.078125 56.5312 0.078125C55.4496 0.078125 54.4123 0.507783 53.6475 1.27258C52.8827 2.03738 52.453 3.07466 52.453 4.15625V12.9922C48.1781 11.0645 43.4178 10.483 38.8046 11.3249C34.1913 12.1668 29.9433 14.3923 26.6249 17.7058C12.8442 31.235 2.55717 62.9492 1.4017 66.6093C0.93441 67.6443 0.733879 68.7799 0.818427 69.9123C0.902974 71.0447 1.2699 72.1379 1.8857 73.092C2.5015 74.0461 3.34653 74.8308 4.34362 75.3742C5.34071 75.9177 6.45808 76.2027 7.59365 76.2031C8.55933 76.2015 9.51372 75.9953 10.394 75.5982C12.9904 74.7758 29.6937 69.3655 44.0079 61.3859L44.1914 61.284C50.0028 58.0317 55.4063 54.3546 59.2941 50.409C62.6146 47.0878 64.8444 42.8337 65.6865 38.2135C66.5286 33.5932 65.943 28.826 64.0077 24.5469H72.8437C73.9252 24.5469 74.9625 24.1172 75.7273 23.3524C76.4921 22.5876 76.9218 21.5503 76.9218 20.4688C76.9218 19.3872 76.4921 18.3499 75.7273 17.5851C74.9625 16.8203 73.9252 16.3906 72.8437 16.3906ZM53.5099 44.6384L53.4794 44.669C50.7232 47.4829 46.9849 50.1745 42.8321 52.6621L34.9443 44.7744C34.1782 44.0083 33.1391 43.5779 32.0556 43.5779C30.9721 43.5779 29.9331 44.0083 29.1669 44.7744C28.4008 45.5405 27.9704 46.5796 27.9704 47.663C27.9704 48.7465 28.4008 49.7856 29.1669 50.5517L35.3589 56.7437C25.065 61.8991 14.2444 65.7223 9.78225 67.2177C12.083 60.346 19.9062 38.3989 29.6087 26.5248L40.0419 36.958C40.8081 37.7241 41.8471 38.1545 42.9306 38.1545C44.0141 38.1545 45.0532 37.7241 45.8193 36.958C46.5854 36.1918 47.0158 35.1528 47.0158 34.0693C47.0158 32.9858 46.5854 31.9467 45.8193 31.1806L35.6444 21.0057C38.7962 19.2417 42.48 18.6781 46.015 19.4191C49.55 20.1601 52.6974 22.1556 54.8755 25.0368C57.0536 27.9181 58.1153 31.4903 57.8642 35.0934C57.6132 38.6966 56.0665 42.0871 53.5099 44.6384Z" fill="black"/>
</svg>
