<svg width="70" height="70" viewBox="0 0 67 61" fill="none" xmlns="http://www.w3.org/2000/svg">
<path d="M20.2747 34.9167L15.2103 30.5417M43.9088 37.8333L37.1562 32M0.0168819 58.25C0.0168819 58.25 33.2195 48.0737 42.8419 39.7583C45.6814 37.3042 47.2764 33.9764 47.2764 30.5067C47.2764 27.0369 45.6814 23.7091 42.8419 21.255C41.4363 20.0399 39.7673 19.076 37.9303 18.4184C36.0932 17.7608 34.1242 17.4223 32.1357 17.4223C30.1471 17.4223 28.1781 17.7608 26.3411 18.4184C24.5041 19.076 22.835 20.0399 21.4294 21.255C11.7732 29.5996 0 58.2646 0 58.2646L0.0168819 58.25ZM64.1667 20.3333C64.1667 20.3333 60.3177 14.5 54.0378 14.5C49.2907 14.5 43.9088 20.3333 43.9088 20.3333C43.9088 20.3333 47.7578 26.1667 54.0378 26.1667C60.3177 26.1667 64.1667 20.3333 64.1667 20.3333Z" stroke="black" stroke-width="3.75" stroke-linecap="round" stroke-linejoin="round"/>
<path d="M43.9089 2.83325C43.9089 2.83325 37.1562 6.15825 37.1562 11.5833C37.1562 17.0083 43.9089 20.3333 43.9089 20.3333C43.9089 20.3333 50.6615 15.7337 50.6615 11.5833C50.6615 6.15825 43.9089 2.83325 43.9089 2.83325Z" stroke="black" stroke-width="3.75" stroke-linecap="round" stroke-linejoin="round"/>
</svg>
