<svg width="20" height="20" viewBox="0 0 45 45" fill="none" xmlns="http://www.w3.org/2000/svg">
<path d="M16.8488 37.9688C16.8488 38.525 16.6841 39.0688 16.3755 39.5313C16.0669 39.9938 15.6284 40.3543 15.1152 40.5672C14.6021 40.78 14.0375 40.8357 13.4928 40.7272C12.9481 40.6187 12.4477 40.3508 12.055 39.9575C11.6623 39.5642 11.3948 39.063 11.2865 38.5174C11.1781 37.9719 11.2337 37.4064 11.4463 36.8925C11.6588 36.3785 12.0187 35.9393 12.4805 35.6302C12.9423 35.3212 13.4852 35.1562 14.0406 35.1562C14.7854 35.1562 15.4996 35.4526 16.0263 35.98C16.5529 36.5075 16.8488 37.2228 16.8488 37.9688ZM32.2934 35.1562C31.738 35.1562 31.1951 35.3212 30.7333 35.6302C30.2715 35.9393 29.9116 36.3785 29.6991 36.8925C29.4865 37.4064 29.4309 37.9719 29.5393 38.5174C29.6476 39.063 29.9151 39.5642 30.3078 39.9575C30.7005 40.3508 31.2009 40.6187 31.7456 40.7272C32.2903 40.8357 32.8549 40.78 33.3681 40.5672C33.8812 40.3543 34.3197 39.9938 34.6283 39.5313C34.9369 39.0688 35.1016 38.525 35.1016 37.9688C35.1016 37.2228 34.8057 36.5075 34.2791 35.98C33.7525 35.4526 33.0382 35.1562 32.2934 35.1562ZM40.6564 13.0693L35.6491 29.366C35.3869 30.2299 34.8536 30.9861 34.1283 31.5225C33.4031 32.0589 32.5245 32.3469 31.623 32.3438H14.7549C13.8405 32.3403 12.9518 32.0403 12.2219 31.4886C11.4919 30.9369 10.9601 30.1632 10.706 29.2834L4.3561 7.03125H1.40406C1.03168 7.03125 0.674553 6.88309 0.41124 6.61937C0.147928 6.35565 0 5.99796 0 5.625C0 5.25204 0.147928 4.89435 0.41124 4.63063C0.674553 4.36691 1.03168 4.21875 1.40406 4.21875H4.3561C4.96583 4.22078 5.55851 4.42053 6.04543 4.7881C6.53234 5.15568 6.8873 5.67131 7.05717 6.25781L8.48054 11.25H39.3138C39.5335 11.2499 39.7501 11.3015 39.9463 11.4006C40.1425 11.4996 40.3128 11.6434 40.4434 11.8204C40.574 11.9974 40.6613 12.2026 40.6983 12.4195C40.7353 12.6364 40.7209 12.859 40.6564 13.0693ZM37.413 14.0625H9.28261L13.4053 28.5117C13.4892 28.8054 13.6662 29.0638 13.9097 29.2477C14.1533 29.4317 14.4499 29.5312 14.7549 29.5312H31.623C31.9234 29.5314 32.216 29.4349 32.4577 29.2562C32.6993 29.0774 32.8774 28.8257 32.9656 28.5381L37.413 14.0625Z" fill="black"/>
</svg>
