<svg width="87" height="87" viewBox="0 0 87 87" fill="none" xmlns="http://www.w3.org/2000/svg">
<path d="M22.5459 5.33357C22.5295 5.33214 22.513 5.33237 22.4967 5.33425C22.4294 5.3424 22.3662 5.37673 22.2591 5.43773C22.045 5.5599 21.7128 5.87902 21.4029 6.36958C20.783 7.35105 20.2826 8.94356 20.1257 10.1656C19.7852 12.8203 20.7069 14.1914 22.3845 15.5073C23.2341 16.1734 24.2938 16.7525 25.4285 17.294C24.8796 14.9715 24.8866 12.6477 24.7943 10.691C24.7232 9.18179 24.585 7.88579 24.2664 7.01681C23.9515 6.15837 23.6064 5.72082 22.7393 5.38216C22.6591 5.35566 22.5978 5.33764 22.5459 5.33357ZM41.4433 7.28393C36.7796 7.30466 32.1321 7.48563 27.596 7.75631C27.7474 8.66607 27.805 9.60098 27.8495 10.5469C27.8577 10.7186 27.8652 10.891 27.8728 11.063C31.5589 14.5104 33.6519 14.7692 35.4897 14.5438C36.427 14.4288 37.347 14.1195 38.4005 13.8681C38.5742 13.827 38.7487 13.7897 38.924 13.7563C40.3651 12.353 42.3 11.2649 44.5896 10.3522C45.9542 9.80708 47.4181 9.55451 48.8866 9.61084C50.2757 9.66233 51.5958 9.97957 52.7699 10.4655C53.8743 10.9226 54.863 11.5138 55.6957 12.2038C56.0763 12.0985 56.4634 12.0462 56.8544 12.0395C58.0734 12.0191 59.3293 12.4287 60.5349 12.9546C62.4638 13.796 64.3785 15.101 65.9369 16.5073C66.2978 16.833 66.6403 17.1564 66.962 17.4821L69.6838 16.9537L70.1307 16.6266C72.3754 14.9838 74.0019 13.0832 75.23 11.2895C65.6019 8.3993 54.6022 7.35411 43.5515 7.28546C42.8487 7.28104 42.1461 7.2807 41.4435 7.28376L41.4433 7.28393ZM17.3127 8.51654C15.2685 8.69183 13.225 8.87614 11.1824 9.06947C11.3751 10.9723 12.2475 12.7522 14.2505 14.6055L14.7892 15.1041L18.5832 15.9211C17.4352 14.306 16.7752 12.2426 17.0918 9.77634C17.1443 9.36751 17.2175 8.94475 17.3127 8.51654ZM48.4165 12.6577C47.5387 12.6672 46.6319 12.8309 45.7223 13.1935C43.3697 14.1311 41.6309 15.2414 40.6368 16.3938C39.6428 17.5459 39.2921 18.6483 39.5714 20.1963C39.5872 20.283 39.6047 20.3683 39.6228 20.4529L45.3301 21.6823L57.1668 19.3839C56.3541 18.3936 55.6365 17.3416 55.0856 16.1911C54.6627 15.3076 53.3332 14.0093 51.6002 13.292C50.7336 12.9333 49.7837 12.7015 48.7909 12.663C48.6662 12.6581 48.5413 12.6563 48.4165 12.6577ZM58.1182 15.351C58.6978 16.2648 59.3468 17.2164 60.0929 18.1071C60.2739 18.3105 60.4581 18.5111 60.6455 18.7086L63.2193 18.2091C62.0145 17.2269 60.5962 16.3185 59.3118 15.7581C58.9257 15.59 58.5265 15.4539 58.1182 15.351ZM28.4676 15.4519C28.6273 16.4222 28.8412 17.3414 29.1131 18.1892L36.451 19.77C36.4089 18.9873 36.4905 18.203 36.6928 17.4458C36.4176 17.5 36.1405 17.5446 35.8622 17.5795C33.8571 17.8254 31.3895 17.4204 28.4676 15.4519ZM15.6209 18.4121L14.1965 31.4218L30.2019 31.8135C33.8272 28.5418 38.4612 26.5687 43.5372 26.5687C48.9504 26.5687 53.8614 28.8127 57.5816 32.4828L70.8326 32.807L69.9761 20.0128L45.2981 24.8042L15.6209 18.4121ZM43.5372 29.6273C33.6437 29.6273 25.4887 38.589 25.4887 49.8701C25.4887 61.1512 33.6437 70.1125 43.5372 70.1125C53.4306 70.1125 61.5858 61.151 61.5858 49.8699C61.5858 38.5888 53.4306 29.6273 43.5372 29.6273ZM12.8776 34.4488L11.8103 45.1277C10.8665 54.5684 13.2098 64.2186 16.956 73.9407L17.2381 74.6731L16.808 75.329C15.5171 77.298 13.4465 79.0438 11.1051 80.6679C13.6143 80.8827 16.162 81.056 18.7375 81.195L22.6328 76.2663L25.0322 78.1626L22.4958 81.3724C24.9034 81.471 27.3316 81.5418 29.7739 81.5896L29.963 77.2098L33.0189 77.3419L32.8332 81.638C35.5584 81.6705 38.2975 81.6737 41.0397 81.6596V77.3046H44.0983V81.6377C46.9654 81.6083 49.8308 81.56 52.6867 81.4987L52.0243 77.4007L55.0438 76.9125L55.7738 81.429C58.567 81.3609 61.3281 81.2808 64.0818 81.2003L61.7199 77.2549L64.3443 75.6838L67.5854 81.0987C70.3888 81.0147 73.1648 80.931 75.895 80.854C73.7318 78.8545 71.5806 76.7368 70.3839 74.1489L70.1951 73.7407L70.2575 73.295C70.2575 73.295 72.364 58.0632 72.3871 50.709C72.3995 46.743 72.0088 41.2411 71.5128 35.8833L60.2207 35.6072C62.9972 39.5621 64.6444 44.5196 64.6444 49.8699C64.6444 62.6375 55.2688 73.1713 43.5372 73.1713C31.8055 73.1713 22.4301 62.6375 22.4301 49.8699C22.4301 44.1514 24.3119 38.8819 27.4431 34.8053L12.8776 34.4488ZM53.2391 41.4851C54.2899 41.4608 55.3183 41.8663 56.1415 42.4656C57.3125 43.3176 58.237 44.575 58.8314 46.0509C60.0205 49.003 59.6917 53.1015 56.2379 55.8004C53.2352 58.1466 49.7265 58.5765 46.5277 57.5752C46.1642 57.4604 45.8057 57.3302 45.4531 57.1852C43.2842 57.853 40.7631 58.7256 38.1516 58.8347C35.3373 58.9522 32.2848 57.9276 30.2774 54.8588C29.3726 53.4757 28.5758 51.7068 28.3156 49.9058C28.1855 49.0052 28.1831 48.0776 28.5107 47.1675C28.8385 46.2574 29.5986 45.3952 30.6121 44.9942L30.6368 44.9847L30.6616 44.9758C31.2233 44.7754 31.8138 44.6672 32.4101 44.6555C33.5073 44.6339 34.5553 44.9373 35.4398 45.4348C36.7873 46.1926 37.8743 47.3039 38.9577 48.4575C39.0753 48.5828 39.1928 48.7092 39.3104 48.8351C44.3522 49.0623 46.1119 47.8993 47.363 46.5344C48.0011 45.838 48.4998 45.0059 49.1374 44.1305C49.7749 43.255 50.6152 42.2992 51.9095 41.7635C52.3314 41.5886 52.7823 41.4942 53.2389 41.4851H53.2391ZM53.4112 44.531C53.2975 44.5258 53.1841 44.5458 53.079 44.5898C52.5185 44.8217 52.1258 45.2224 51.6096 45.9313C51.0932 46.64 50.5175 47.6193 49.6179 48.6008C48.2529 50.0901 46.1136 51.3851 42.6129 51.786C43.8285 52.8113 45.0655 53.6449 46.2789 54.2039L48.5134 54.9248C50.5251 55.3069 52.4085 54.9108 54.3545 53.3904C56.7601 51.5105 56.791 49.1707 55.9946 47.1936C55.5964 46.2052 54.9419 45.3755 54.3419 44.9386C53.948 44.652 53.6501 44.5405 53.4112 44.531ZM32.589 47.6745C32.3246 47.6783 32.0436 47.736 31.718 47.8492C31.4991 47.9381 31.4685 47.9811 31.3883 48.2037C31.3051 48.4356 31.2597 48.8939 31.3426 49.4684C31.5086 50.6172 32.1623 52.1532 32.8368 53.1841C34.302 55.424 35.8938 55.8682 38.024 55.7791C39.103 55.7339 40.2846 55.4858 41.4995 55.1604C39.5735 53.7509 38.0692 51.9793 36.7281 50.5513C35.6936 49.4499 34.747 48.5542 33.9402 48.1004C33.5368 47.8735 33.1983 47.733 32.8483 47.6888C32.7623 47.678 32.6757 47.6732 32.589 47.6745Z" fill="black"/>
</svg>
