<svg width="36" height="30" viewBox="0 0 36 30" fill="none" xmlns="http://www.w3.org/2000/svg">
<path d="M18 5.625C10.5 5.625 4.095 9.5125 1.5 15C4.095 20.4875 10.5 24.375 18 24.375C25.5 24.375 31.905 20.4875 34.5 15C31.905 9.5125 25.5 5.625 18 5.625ZM18 21.25C13.86 21.25 10.5 18.45 10.5 15C10.5 11.55 13.86 8.75 18 8.75C22.14 8.75 25.5 11.55 25.5 15C25.5 18.45 22.14 21.25 18 21.25ZM18 11.25C15.51 11.25 13.5 12.925 13.5 15C13.5 17.075 15.51 18.75 18 18.75C20.49 18.75 22.5 17.075 22.5 15C22.5 12.925 20.49 11.25 18 11.25Z" fill="black"/>
</svg>
