<svg width="87" height="87" viewBox="0 0 87 87" fill="none" xmlns="http://www.w3.org/2000/svg">
<path d="M57.0003 43.5C56.9982 37.0538 58.7031 30.722 61.9416 25.1484L63.2364 22.8953C60.5223 22.2493 57.7567 21.8428 54.9714 21.6803C51.2433 18.8087 45.6869 15.4017 39.2808 14.3176L35.3438 13.5938L37.6156 24.1051C30.535 26.5078 24.2886 31.388 20.1544 34.7456C19.3547 34.0761 18.5175 33.4219 17.643 32.783C10.8954 27.8553 3.60744 27.3795 3.30158 27.3625L0 27.1875L0.453691 30.4687C0.502969 30.8085 1.60746 38.0693 5.83172 43.4711C1.60746 48.8746 0.509766 56.1303 0.453691 56.4752L0 59.8125L3.30158 59.5814C3.60744 59.5644 10.8954 59.0903 17.643 54.1609C18.5017 53.5345 19.3263 52.8904 20.1171 52.2289C24.258 55.5984 30.5061 60.4871 37.5952 62.8898L35.3438 73.4062L39.2808 72.6892C45.6512 71.6119 51.189 68.2032 54.9137 65.3282C57.7378 65.1648 60.542 64.7537 63.2942 64.0996L61.9501 61.8601C58.7078 56.2845 57 49.9497 57.0003 43.5Z" fill="black"/>
<path d="M84.8912 37.6801C83.8972 36.0013 82.0807 33.4491 79.0816 30.8357C75.9595 28.147 72.395 26.0198 68.5464 24.5486L66.6484 27.8672C63.893 32.6117 62.4404 38.0002 62.4377 43.4869C62.4351 48.9735 63.8824 54.3634 66.6331 59.1107L68.6297 62.4361C72.4383 60.9828 75.9686 58.8854 79.0663 56.2356C84.4596 51.5662 86.9999 45.709 86.9999 43.5C86.9999 41.4082 85.6406 38.9563 84.8912 37.6801ZM70.6874 43.5C70.1497 43.5 69.6241 43.3405 69.177 43.0418C68.7299 42.743 68.3814 42.3184 68.1756 41.8216C67.9699 41.3249 67.916 40.7782 68.0209 40.2508C68.1258 39.7234 68.3848 39.239 68.765 38.8588C69.1452 38.4786 69.6297 38.2196 70.157 38.1147C70.6844 38.0098 71.2311 38.0636 71.7279 38.2694C72.2246 38.4752 72.6493 38.8237 72.948 39.2708C73.2467 39.7179 73.4062 40.2435 73.4062 40.7812C73.4062 41.5023 73.1198 42.1938 72.6099 42.7037C72.1 43.2135 71.4085 43.5 70.6874 43.5Z" fill="black"/>
</svg>
 