<svg width="20" height="20" viewBox="0 0 38 36" fill="none" xmlns="http://www.w3.org/2000/svg">
<path d="M19.2058 29.7812L19.0186 29.9687L18.8127 29.7812C9.92032 21.7 4.042 16.3563 4.042 10.9375C4.042 7.1875 6.85011 4.375 10.5943 4.375C13.4773 4.375 16.2854 6.25 17.2776 8.8H20.7596C21.7518 6.25 24.5599 4.375 27.4429 4.375C31.1871 4.375 33.9952 7.1875 33.9952 10.9375C33.9952 16.3563 28.1169 21.7 19.2058 29.7812ZM27.4429 0.625C24.1855 0.625 21.0592 2.14375 19.0186 4.525C16.978 2.14375 13.8517 0.625 10.5943 0.625C4.82827 0.625 0.297852 5.14375 0.297852 10.9375C0.297852 18.0062 6.66291 23.8 16.3041 32.5563L19.0186 35.0313L21.7331 32.5563C31.3743 23.8 37.7393 18.0062 37.7393 10.9375C37.7393 5.14375 33.2089 0.625 27.4429 0.625Z" fill="black"/>
</svg>
