<svg width="72" height="67" viewBox="0 0 72 67" fill="none" xmlns="http://www.w3.org/2000/svg">
<path d="M26.153 15.8729L50.5039 40.2239L13.1682 64.4063L2.21167 53.4497L26.153 15.8729ZM62.2761 26.3619C60.3549 28.2849 59.0861 28.3013 57.1794 28.9556C57.1195 34.0233 57.1902 39.1237 50.7595 40.3816L25.718 15.3401C25.718 15.3401 25.7017 12.8569 28.2482 11.561C29.1454 11.1405 30.9652 11.3381 32.0491 11.5157C34.5974 6.03288 38.4562 5.10669 42.7482 6.87932C44.8054 3.76544 49.8895 2.43869 53.674 3.66213C57.4603 4.88557 57.4295 7.41944 59.9489 8.65557C62.4682 9.8935 65.0311 7.33063 65.0456 6.06369C65.0601 4.79494 64.839 2.37344 66.5464 2.81207C67.5886 3.09482 68.4277 4.108 69.4391 8.32932C70.001 10.7001 69.6747 14.2054 67.6502 16.3569C66.4068 17.6782 63.6319 18.3688 62.3649 18.7621C62.4845 19.1064 64.201 24.4406 62.2761 26.3619Z" stroke="black" stroke-width="4" stroke-linecap="round" stroke-linejoin="round"/>
<path d="M62.3649 18.7602C57.2663 21.3521 53.4818 20.1305 49.7245 16.375" stroke="black" stroke-width="4" stroke-linecap="round" stroke-linejoin="round"/>
</svg>
 