<svg width="28" height="30" viewBox="0 0 28 30" fill="none" xmlns="http://www.w3.org/2000/svg">
<path d="M18.5996 3.11133V6.86133C22.0156 8.56055 24.3711 12.0762 24.3711 16.1543C24.3711 21.8906 19.7246 26.5371 13.9883 26.5371C8.25195 26.5371 3.59961 21.8906 3.59961 16.1543C3.59961 12.0762 5.95508 8.56055 9.37109 6.86133V3.11133C3.99219 5.01562 0.136719 10.125 0.136719 16.1543C0.136719 23.8008 6.33594 30 13.9824 30C21.6289 30 27.8281 23.8008 27.8281 16.1543C27.8281 10.125 23.9727 5.01562 18.5996 3.11133ZM13.9824 11.5371C15.2539 11.5371 16.291 10.5 16.291 9.22852V2.30859C16.291 1.03711 15.2598 0 13.9824 0C12.7051 0 11.6738 1.03711 11.6738 2.30859V9.23438C11.6738 10.5059 12.7109 11.5371 13.9824 11.5371Z" fill="black"/>
</svg>
