<svg width="20" height="20" viewBox="0 0 46 45" fill="none" xmlns="http://www.w3.org/2000/svg">
<path d="M22.8687 7.5C24.8547 7.5 26.7594 8.29018 28.1637 9.6967C29.568 11.1032 30.357 13.0109 30.357 15C30.357 16.9891 29.568 18.8968 28.1637 20.3033C26.7594 21.7098 24.8547 22.5 22.8687 22.5C20.8827 22.5 18.978 21.7098 17.5737 20.3033C16.1693 18.8968 15.3804 16.9891 15.3804 15C15.3804 13.0109 16.1693 11.1032 17.5737 9.6967C18.978 8.29018 20.8827 7.5 22.8687 7.5ZM22.8687 26.25C31.1433 26.25 37.8453 29.6062 37.8453 33.75V37.5H7.89209V33.75C7.89209 29.6062 14.5941 26.25 22.8687 26.25Z" fill="black"/>
</svg>
