<svg width="20" height="20" viewBox="0 0 43 42" fill="none" xmlns="http://www.w3.org/2000/svg">
    <path d="M42.0008 38.0089L32.7774 28.782C35.5429 25.1784 36.834 20.6579 36.3889 16.1374C35.9438 11.6169 33.7957 7.43496 30.3805 4.43992C26.9653 1.44488 22.5386 -0.138999 17.9985 0.00958257C13.4583 0.158164 9.14471 2.02808 5.93263 5.24001C2.72056 8.45194 0.850554 12.7654 0.701966 17.3053C0.553378 21.8452 2.13733 26.2717 5.13251 29.6867C8.12769 33.1018 12.3098 35.2498 16.8305 35.6949C21.3512 36.14 25.872 34.8489 29.4757 32.0836L38.7069 41.3162C38.9237 41.533 39.181 41.705 39.4643 41.8223C39.7476 41.9396 40.0511 42 40.3577 42C40.6643 42 40.9679 41.9396 41.2512 41.8223C41.5344 41.705 41.7918 41.533 42.0086 41.3162C42.2254 41.0994 42.3973 40.8421 42.5147 40.5588C42.632 40.2756 42.6924 39.972 42.6924 39.6655C42.6924 39.3589 42.632 39.0553 42.5147 38.7721C42.3973 38.4888 42.2254 38.2315 42.0086 38.0147L42.0008 38.0089ZM5.39278 17.9064C5.39278 15.2944 6.16735 12.7411 7.61853 10.5694C9.06971 8.39765 11.1323 6.70499 13.5455 5.70544C15.9588 4.7059 18.6142 4.44437 21.1761 4.95394C23.7379 5.4635 26.0912 6.72127 27.9382 8.56818C29.7852 10.4151 31.043 12.7682 31.5526 15.33C32.0622 17.8917 31.8006 20.547 30.801 22.9601C29.8014 25.3732 28.1087 27.4358 25.9369 28.8869C23.765 30.338 21.2116 31.1125 18.5996 31.1125C15.098 31.1089 11.7409 29.7164 9.26494 27.2405C6.78896 24.7647 5.39638 21.4077 5.39278 17.9064Z" fill="black"/>
</svg>