<svg width="30" height="30" viewBox="0 0 44 36" fill="none" xmlns="http://www.w3.org/2000/svg">
<path d="M43.7918 4.49992C42.1877 5.22909 40.4585 5.70825 38.6668 5.93742C40.5002 4.83325 41.9168 3.08325 42.5835 0.979085C40.8543 2.02075 38.9377 2.74992 36.9168 3.16659C35.271 1.37492 32.9585 0.333252 30.3335 0.333252C25.4377 0.333252 21.4377 4.33325 21.4377 9.27075C21.4377 9.97909 21.521 10.6666 21.6668 11.3124C14.2502 10.9374 7.646 7.37492 3.25016 1.97909C2.47933 3.29159 2.04183 4.83325 2.04183 6.45825C2.04183 9.56242 3.60433 12.3124 6.021 13.8749C4.54183 13.8749 3.16683 13.4583 1.9585 12.8333V12.8958C1.9585 17.2291 5.04183 20.8541 9.12516 21.6666C7.81418 22.0254 6.43786 22.0753 5.10433 21.8124C5.67018 23.5884 6.77836 25.1424 8.27311 26.256C9.76786 27.3696 11.574 27.9868 13.4377 28.0208C10.2786 30.5217 6.36265 31.8735 2.3335 31.8541C1.62516 31.8541 0.916829 31.8124 0.208496 31.7291C4.16683 34.2708 8.87516 35.7499 13.9168 35.7499C30.3335 35.7499 39.3543 22.1249 39.3543 10.3124C39.3543 9.91659 39.3543 9.54159 39.3335 9.14575C41.0835 7.89575 42.5835 6.31242 43.7918 4.49992Z" fill="black"/>
</svg>
