<svg width="30" height="30" viewBox="0 0 43 43" fill="none" xmlns="http://www.w3.org/2000/svg">
<path d="M12.875 42.75C11.7063 42.75 10.7061 42.3342 9.8745 41.5026C9.0415 40.6696 8.625 39.6688 8.625 38.5C8.625 37.3312 9.0415 36.3304 9.8745 35.4974C10.7061 34.6658 11.7063 34.25 12.875 34.25C14.0437 34.25 15.0439 34.6658 15.8755 35.4974C16.7085 36.3304 17.125 37.3312 17.125 38.5C17.125 39.6688 16.7085 40.6696 15.8755 41.5026C15.0439 42.3342 14.0437 42.75 12.875 42.75ZM34.125 42.75C32.9562 42.75 31.9561 42.3342 31.1245 41.5026C30.2915 40.6696 29.875 39.6688 29.875 38.5C29.875 37.3312 30.2915 36.3304 31.1245 35.4974C31.9561 34.6658 32.9562 34.25 34.125 34.25C35.2938 34.25 36.2946 34.6658 37.1276 35.4974C37.9592 36.3304 38.375 37.3312 38.375 38.5C38.375 39.6688 37.9592 40.6696 37.1276 41.5026C36.2946 42.3342 35.2938 42.75 34.125 42.75ZM11.0688 8.75L16.1688 19.375H31.0438L36.8875 8.75H11.0688ZM9.05 4.5H40.3938C41.2083 4.5 41.8281 4.86267 42.2531 5.588C42.6781 6.31475 42.6958 7.05 42.3063 7.79375L34.7625 21.3937C34.3729 22.1021 33.8502 22.651 33.1943 23.0406C32.5397 23.4302 31.8229 23.625 31.0438 23.625H15.2125L12.875 27.875H38.375V32.125H12.875C11.2812 32.125 10.0771 31.4252 9.2625 30.0255C8.44792 28.6272 8.4125 27.2375 9.15625 25.8563L12.025 20.65L4.375 4.5H0.125V0.25H7.03125L9.05 4.5Z" fill="black"/>
</svg>
  