<svg width="70" height="70" viewBox="0 0 60 54" fill="none" xmlns="http://www.w3.org/2000/svg">
<path d="M49.6002 35.0499C50.621 32.5708 51.1752 29.9166 51.1752 26.9999C51.1752 24.8999 50.8543 22.8874 50.3002 21.0208C48.4043 21.4583 46.421 21.6916 44.3502 21.6916C40.1092 21.6962 35.9294 20.681 32.163 18.7318C28.3965 16.7826 25.1539 13.9565 22.7085 10.4916C20.0925 16.8213 15.1576 21.9127 8.91266 24.7249C8.796 25.4541 8.796 26.2416 8.796 26.9999C8.796 29.7845 9.34446 32.5418 10.4101 35.1144C11.4757 37.687 13.0376 40.0246 15.0066 41.9936C18.9831 45.9701 24.3765 48.2041 30.0002 48.2041C33.0627 48.2041 36.0085 47.5333 38.6627 46.3374C40.3252 49.5166 41.0835 51.0916 41.0252 51.0916C36.2418 52.6958 32.5377 53.4833 30.0002 53.4833C22.9418 53.4833 16.2043 50.7124 11.246 45.7249C8.23016 42.7184 5.98833 39.0254 4.71266 34.9624H0.833496V21.6916H4.01266C4.97587 17.0031 7.19035 12.6628 10.4211 9.13125C13.6519 5.5997 17.7785 3.00863 22.363 1.63299C26.9474 0.257349 31.8188 0.148447 36.4602 1.31784C41.1016 2.48723 45.3398 4.8913 48.7252 8.27495C52.4008 11.9361 54.9079 16.6052 55.9293 21.6916H59.1668V34.9624H58.9918L48.6085 44.4999L33.1502 42.7499V37.8791H47.2377L49.6002 35.0499ZM22.0377 26.3291C22.9127 26.3291 23.7585 26.6791 24.371 27.3208C24.9865 27.9414 25.3319 28.78 25.3319 29.6541C25.3319 30.5282 24.9865 31.3669 24.371 31.9874C23.7585 32.5999 22.9127 32.9499 22.0377 32.9499C20.2002 32.9499 18.7127 31.4916 18.7127 29.6541C18.7127 27.8166 20.2002 26.3291 22.0377 26.3291ZM37.9335 26.3291C39.771 26.3291 41.2293 27.8166 41.2293 29.6541C41.2293 31.4916 39.771 32.9499 37.9335 32.9499C36.096 32.9499 34.6085 31.4916 34.6085 29.6541C34.6085 28.7723 34.9588 27.9265 35.5824 27.303C36.2059 26.6794 37.0517 26.3291 37.9335 26.3291Z" fill="black"/>
</svg>
    