<svg width="35" height="35" viewBox="0 0 35 35" fill="none" xmlns="http://www.w3.org/2000/svg">
<path d="M4.375 8.75H7.29167H30.625" stroke="black" stroke-width="2" stroke-linecap="round" stroke-linejoin="round"/>
<path d="M27.7082 8.74984V29.1665C27.7082 29.9401 27.4009 30.6819 26.8539 31.2289C26.3069 31.7759 25.5651 32.0832 24.7915 32.0832H10.2082C9.43462 32.0832 8.69276 31.7759 8.14578 31.2289C7.59879 30.6819 7.2915 29.9401 7.2915 29.1665V8.74984M11.6665 8.74984V5.83317C11.6665 5.05962 11.9738 4.31776 12.5208 3.77078C13.0678 3.22379 13.8096 2.9165 14.5832 2.9165H20.4165C21.1901 2.9165 21.9319 3.22379 22.4789 3.77078C23.0259 4.31776 23.3332 5.05962 23.3332 5.83317V8.74984" stroke="black" stroke-width="2" stroke-linecap="round" stroke-linejoin="round"/>
<path d="M14.5835 16.0415V24.7915" stroke="black" stroke-width="2" stroke-linecap="round" stroke-linejoin="round"/>
<path d="M20.4165 16.0415V24.7915" stroke="black" stroke-width="2" stroke-linecap="round" stroke-linejoin="round"/>
</svg>
