<svg width="77" height="72" viewBox="0 0 77 72" fill="none" xmlns="http://www.w3.org/2000/svg">
<path d="M65.6875 30.7812C65.6849 27.8629 64.8999 24.9987 63.4143 22.4869C61.9286 19.975 59.7966 17.9075 57.2403 16.4997C59.167 14.49 60.2449 11.8152 60.25 9.03125H54.8125C54.8111 10.4729 54.2377 11.8551 53.2183 12.8746C52.1989 13.894 50.8167 14.4673 49.375 14.4688C45.1023 14.4744 41.0021 16.1552 37.9547 19.1502C34.9073 22.1452 33.1558 26.2156 33.0761 30.4876C29.5903 26.9373 27.6336 22.163 27.625 17.1875C27.6178 14.7831 26.8132 12.4489 25.3373 10.5508C23.8613 8.6527 21.7973 7.29786 19.4688 6.69856V0.875H14.0312V6.69856C11.7027 7.29786 9.63872 8.6527 8.16274 10.5508C6.68676 12.4489 5.88215 14.7831 5.875 17.1875V30.7812H0.4375V33.5C0.4375 43.5948 4.44764 53.2761 11.5857 60.4142C18.7239 67.5524 28.4052 71.5625 38.5 71.5625C48.5948 71.5625 58.2761 67.5524 65.4143 60.4142C72.5524 53.2761 76.5625 43.5948 76.5625 33.5V30.7812H65.6875ZM49.375 19.9062C52.2581 19.9098 55.0221 21.0568 57.0608 23.0954C59.0995 25.1341 60.2464 27.8981 60.25 30.7812H38.5C38.5036 27.8981 39.6505 25.1341 41.6892 23.0954C43.7279 21.0568 46.4919 19.9098 49.375 19.9062ZM11.3125 17.1875C11.3125 15.7454 11.8854 14.3623 12.9051 13.3426C13.9248 12.3229 15.3079 11.75 16.75 11.75C18.1921 11.75 19.5752 12.3229 20.5949 13.3426C21.6146 14.3623 22.1875 15.7454 22.1875 17.1875C22.1983 22.0313 23.6481 26.7628 26.3526 30.7812H11.3125V17.1875ZM38.5 66.125C30.3207 66.1149 22.4427 63.0371 16.4227 57.4999C10.4027 51.9626 6.67868 44.3687 5.98647 36.2188H71.0163C70.324 44.3692 66.5996 51.9635 60.579 57.5008C54.5585 63.0381 46.6798 66.1155 38.5 66.125Z" fill="black"/>
</svg>
 