<svg width="87" height="87" viewBox="0 0 87 87" fill="none" xmlns="http://www.w3.org/2000/svg">
<path d="M73.0801 46.1463C75.4908 43.7388 77.3295 40.8203 78.4601 37.6064C79.5908 34.3925 79.9845 30.9656 79.6121 27.5791C79.2396 24.1925 78.1107 20.933 76.3086 18.0417C74.5066 15.1503 72.0776 12.701 69.2013 10.875C61.9151 6.05377 52.1638 6.01752 44.8051 10.7663C38.4251 14.8625 34.9088 21.2425 34.2926 27.84C33.8213 32.625 32.0088 37.0838 28.6738 40.4188L28.5651 40.5275C24.3601 44.7325 24.3601 51.1488 28.3113 55.0638L31.9001 58.6525C33.7993 60.5505 36.3744 61.6166 39.0594 61.6166C41.7445 61.6166 44.3196 60.5505 46.2188 58.6525C49.7351 55.1363 54.3751 53.215 59.4138 52.6713C64.3801 52.1275 69.2376 49.9525 73.0801 46.1463ZM22.6926 71.9925C23.6713 74.0225 23.3451 76.4875 21.6413 78.155C20.9034 78.904 19.963 79.4214 18.9353 79.6437C17.9076 79.8659 16.8374 79.7834 15.856 79.4062C14.8745 79.029 14.0245 78.3736 13.4102 77.5203C12.7958 76.667 12.4439 75.6529 12.3976 74.6025C11.3472 74.5562 10.3331 74.2043 9.47981 73.5899C8.62651 72.9756 7.97107 72.1256 7.59388 71.1441C7.2167 70.1627 7.13417 69.0925 7.35642 68.0648C7.57868 67.0371 8.09605 66.0967 8.84507 65.3588C10.5126 63.6913 13.0138 63.3288 15.0076 64.3075L23.9976 55.4988C24.5051 56.1875 25.0851 56.985 25.7376 57.6375L29.3263 61.2263C30.0876 61.9513 30.8126 62.5675 31.7551 63.1113L22.6926 71.9925Z" fill="black"/>
</svg>
 