<svg width="70" height="70" viewBox="0 0 60 64" fill="none" xmlns="http://www.w3.org/2000/svg">
<path d="M56.6875 14.1281L32.625 0.956632C31.8209 0.514057 30.9179 0.281982 30 0.281982C29.0821 0.281982 28.1791 0.514057 27.375 0.956632L3.3125 14.1281C2.45149 14.5992 1.73313 15.2934 1.23278 16.1377C0.732428 16.982 0.468523 17.9455 0.46875 18.9269V45.073C0.468523 46.0545 0.732428 47.0179 1.23278 47.8623C1.73313 48.7066 2.45149 49.4008 3.3125 49.8719L27.375 63.0434C28.179 63.4864 29.082 63.7188 30 63.7188C30.918 63.7188 31.821 63.4864 32.625 63.0434L56.6875 49.8719C57.5485 49.4008 58.2669 48.7066 58.7672 47.8623C59.2676 47.0179 59.5315 46.0545 59.5312 45.073V18.9269C59.5315 17.9455 59.2676 16.982 58.7672 16.1377C58.2669 15.2934 57.5485 14.5992 56.6875 14.1281ZM30 6.9996L49.6875 17.7812L43.8277 20.9887L24.1402 10.2098L30 6.9996ZM30 28.5547L10.3125 17.7812L17.3016 13.9531L36.9891 24.7293L30 28.5547ZM7.03125 23.466L26.7188 34.2394V55.2039L7.03125 44.425V23.466ZM33.2812 55.2039V34.2394L39.8438 30.6492V38.5625C39.8438 39.4327 40.1895 40.2673 40.8048 40.8827C41.4202 41.498 42.2548 41.8437 43.125 41.8437C43.9952 41.8437 44.8298 41.498 45.4452 40.8827C46.0605 40.2673 46.4062 39.4327 46.4062 38.5625V27.0562L52.9688 23.466V44.425L33.2812 55.2039Z" fill="black"/>
</svg>
